<svg width="63" height="62" viewBox="0 0 63 62" fill="none" xmlns="http://www.w3.org/2000/svg">
<path d="M12.9844 45.5148C10.413 42.6862 8.87012 39.6005 8.87012 34.4575C8.87012 25.4574 15.2988 17.4859 24.2988 13.3716L26.6132 16.7145C18.1274 21.3431 16.3273 27.2575 15.813 31.1146C17.0988 30.3432 18.8988 30.0861 20.6988 30.3432C25.3274 30.8575 28.9275 34.4575 28.9275 39.3433C28.9275 41.6576 27.8989 43.9719 26.356 45.7719C24.556 47.572 22.4988 48.3434 19.9274 48.3434C17.0988 48.3434 14.5273 47.0577 12.9844 45.5148ZM38.699 45.5148C36.1275 42.6862 34.5847 39.6005 34.5847 34.4575C34.5847 25.4574 41.0133 17.4859 50.0134 13.3716L52.3277 16.7145C43.8419 21.3431 42.0419 27.2575 41.5276 31.1146C42.8133 30.3432 44.6133 30.0861 46.4134 30.3432C51.042 30.8575 54.642 34.4575 54.642 39.3433C54.642 41.6576 53.6134 43.9719 52.0706 45.7719C50.5277 47.572 48.2134 48.3434 45.6419 48.3434C42.8133 48.3434 40.2419 47.0577 38.699 45.5148Z" fill="#7416C5" fill-opacity="0.18"/>
</svg>
